<svg width="33" height="28" viewBox="0 0 33 28" fill="none" xmlns="http://www.w3.org/2000/svg">
<path d="M13.6 0.799996C13.9333 1.79999 14.1 2.63333 14.1 3.3C14.1 3.9 14 4.7 13.8 5.7C9.33333 5.7 7.1 8 7.1 12.6C7.1 14.2667 7.96667 15.2 9.7 15.4C12.2333 15.6 13.5 17.2333 13.5 20.3C13.5 22.6333 12.9333 24.4333 11.8 25.7C10.7333 26.9 8.76667 27.5 5.9 27.5C1.96667 27.5 2.38419e-07 24.8333 2.38419e-07 19.5C2.38419e-07 14.1667 1.06667 9.73333 3.2 6.2C5.33333 2.6 8.8 0.799996 13.6 0.799996ZM31.7 0.799996C32.0333 1.79999 32.2 2.63333 32.2 3.3C32.2 3.9 32.1 4.7 31.9 5.7C27.4333 5.7 25.2 8 25.2 12.6C25.2 14.2667 26.0667 15.2 27.8 15.4C30.3333 15.6 31.6 17.2333 31.6 20.3C31.6 22.6333 31.0333 24.4333 29.9 25.7C28.8333 26.9 26.8667 27.5 24 27.5C20.0667 27.5 18.1 24.8333 18.1 19.5C18.1 14.1667 19.1667 9.73333 21.3 6.2C23.4333 2.6 26.9 0.799996 31.7 0.799996Z" fill="#BA463F"/>
</svg>
