<?xml version="1.0" encoding="UTF-8"?>
<svg id="Ebene_1" data-name="Ebene 1" xmlns="http://www.w3.org/2000/svg" viewBox="0 0 24.09 24.09">
  <defs>
    <style>
      .cls-1 {
        fill: #fff;
      }
    </style>
  </defs>
  <path class="cls-1" d="M15.58,12.05l7.78-7.78c.98-.98.98-2.56,0-3.54s-2.56-.98-3.54,0l-7.78,7.78L4.27.73C3.29-.24,1.71-.24.73.73S-.24,3.29.73,4.27l7.78,7.78L.73,19.82c-.98.98-.98,2.56,0,3.54.98.98,2.56.98,3.54,0l7.78-7.78,7.78,7.78c.98.98,2.56.98,3.54,0,.98-.98.98-2.56,0-3.54l-7.78-7.78Z"/>
</svg>