<?xml version="1.0" encoding="UTF-8"?>
<svg id="Ebene_1" xmlns="http://www.w3.org/2000/svg" viewBox="0 0 138.29 122.14">
  <defs>
    <style>
      .cls-1 {
        fill: #b6c841;
      }

      .cls-2 {
        fill: #1d1d1b;
      }
    </style>
  </defs>
  <path class="cls-1" d="M97.33,122.14c22.62,0,40.96-18.34,40.96-40.96s-18.34-40.96-40.96-40.96-40.96,18.34-40.96,40.96,18.34,40.96,40.96,40.96"/>
  <g>
    <path class="cls-2" d="M0,8.48V.16h1.15v1.1l.06-.06C1.92.42,2.83,0,3.63,0,4.71,0,5.46.54,5.76,1.31,6.5.53,7.43,0,8.4,0,9.51,0,10.69.46,10.69,2.53v5.95h-1.15V2.53c0-1.12-.56-1.54-1.3-1.54-1.02,0-1.7.67-2.32,1.28v6.21h-1.15V2.53c0-1.12-.56-1.54-1.3-1.54-1.02,0-1.7.67-2.32,1.28v6.21H0Z"/>
    <path class="cls-2" d="M18.03,8.48v-1.12h-.03c-.66.74-1.52,1.28-2.46,1.28-1.23,0-2.4-.64-2.4-2.43V.16h1.15v6.02c0,1.1.53,1.47,1.36,1.47s1.86-.7,2.39-1.26V.16h1.15v8.32h-1.15Z"/>
    <path class="cls-2" d="M21.78,6.37c.54.78,1.34,1.28,2.39,1.28,1.25,0,1.79-.67,1.79-1.38,0-2.11-4.93-.99-4.83-4.03C21.17.8,22.27-.02,23.87,0c1.09.02,2.29.61,2.85,1.46l-.8.7c-.64-.78-1.25-1.17-2.15-1.17-.98,0-1.5.5-1.5,1.23,0,1.81,4.83.88,4.83,3.99,0,1.62-1.41,2.43-2.91,2.43-1.3,0-2.56-.56-3.33-1.58l.91-.69Z"/>
    <path class="cls-2" d="M35.14,6.71c-.54.94-1.31,1.94-3.2,1.94s-3.62-1.28-3.62-4.32C28.32,1.63,29.66,0,31.71,0c1.73,0,3.17,1.12,3.17,3.78v.77h-5.41c0,1.82,1.09,3.1,2.46,3.1,1.02,0,1.82-.54,2.3-1.41l.9.46ZM33.73,3.55c0-1.54-.74-2.56-1.98-2.56-1.39,0-2.14,1.02-2.24,2.56h4.23Z"/>
    <path class="cls-2" d="M41.81,8.48v-1.12h-.03c-.66.74-1.52,1.28-2.46,1.28-1.23,0-2.4-.64-2.4-2.43V.16h1.15v6.02c0,1.1.53,1.47,1.36,1.47s1.86-.7,2.39-1.26V.16h1.15v8.32h-1.15Z"/>
    <path class="cls-2" d="M45.42,8.48V.16h1.15v1.1l.06-.06C47.34.42,48.26,0,49.06,0c1.07,0,1.82.54,2.13,1.31C51.92.53,52.85,0,53.83,0c1.1,0,2.29.46,2.29,2.53v5.95h-1.15V2.53c0-1.12-.56-1.54-1.3-1.54-1.02,0-1.7.67-2.32,1.28v6.21h-1.15V2.53c0-1.12-.56-1.54-1.3-1.54-1.02,0-1.7.67-2.32,1.28v6.21h-1.15Z"/>
  </g>
  <g>
    <path class="cls-2" d="M.55,34.9V13.24h4.32l8.52,14.76h.06v-14.76h3.9v21.66h-3.99l-8.85-15.42h-.06v15.42H.55Z"/>
    <path class="cls-2" d="M25.75,13.21h5.16l6.15,21.69h-4.11l-1.2-4.68h-6.84l-1.29,4.68h-4.11l6.24-21.69ZM25.81,26.8h5.04l-2.43-9.42h-.06l-2.55,9.42Z"/>
    <path class="cls-2" d="M51.19,13.21v3.48h-5.67v18.21h-4.14v-18.21h-5.67v-3.48h15.48Z"/>
    <path class="cls-2" d="M65.98,13.24h4.14v13.56c0,6.33-3.9,8.4-8.31,8.4s-8.31-2.07-8.31-8.4v-13.56h4.14v13.74c0,3.51,1.38,4.74,4.17,4.74s4.17-1.23,4.17-4.74v-13.74Z"/>
    <path class="cls-2" d="M74.05,34.9V13.24h8.64c4.92,0,6.9,2.85,6.93,6.42.03,2.67-1.32,4.83-3.96,5.58l4.77,9.66h-4.59l-4.08-8.82h-3.57v8.82h-4.14ZM78.19,22.72h3.06c3.24,0,4.23-1.02,4.23-3.06s-1.23-3.06-3.51-3.06h-3.78v6.12Z"/>
  </g>
  <g>
    <path class="cls-2" d="M.16,60.77v-21.66h7.92c4.68,0,7.65,1.95,7.65,6.45s-2.97,6.45-7.65,6.45h-3.78v8.76H.16ZM4.3,48.65h3.3c3.12,0,3.99-1.17,3.99-3.09s-.87-3.09-3.99-3.09h-3.3v6.18Z"/>
    <path class="cls-2" d="M30.58,39.11h4.14v13.56c0,6.33-3.9,8.4-8.31,8.4s-8.31-2.07-8.31-8.4v-13.56h4.14v13.74c0,3.51,1.38,4.74,4.17,4.74s4.17-1.23,4.17-4.74v-13.74Z"/>
    <path class="cls-2" d="M38.65,60.77v-21.66h8.64c4.92,0,6.9,2.85,6.93,6.42.03,2.67-1.32,4.83-3.96,5.58l4.77,9.66h-4.59l-4.08-8.82h-3.57v8.82h-4.14ZM42.79,48.59h3.06c3.24,0,4.23-1.02,4.23-3.06s-1.23-3.06-3.51-3.06h-3.78v6.12Z"/>
  </g>
  <path class="cls-2" d="M98.83,89.02l4.89-5.94s.06-.11.05-.17l1.68-1.63h6.03l19.03,7.74h-31.67ZM86.61,103.86l11.85-14.39h31.84l-43.69,14.39ZM110.34,104.79l-10.21-3.15v-1.77l10.21-3.35v8.27ZM99.68,101.64l-13.95,6.03,4.38-4.5h-.01s9.58-3.15,9.58-3.15v1.62ZM86.23,104.42l2.97-.97-3.85,3.96.88-2.99ZM84.66,108.16l-2.24,1.01s-5.13-28-5.14-28.02v-4.92l4.07-3.66,9.3,15.21-5.99,20.39ZM77.44,109l-1.65-27.19,1.13-.29,4.2,23.04-3.68,4.44ZM71.77,82.86l3.57-.93.75,12.41-4.33-11.48ZM76.83,76.63v4.45l-5.21,1.35h0s-.12.03-.12.03l-1.6.42,6.94-6.25ZM75.07,72.41l5.72.05-11.06,9.96,5.34-10ZM69.47,59.15l9.41,12.84-3.94-.03h0c-.08,0-.16.05-.2.12l-3.64,6.81-1.63-19.74ZM101.53,78.16l-1.13,1.81-1.75-1.49s-.11-.06-.17-.05l-12.11,1.48-4.76-7.79c-.04-.07-.11-.11-.19-.11l-1.97-.02-9.64-13.15,31.73,19.32ZM90.89,87.29l-4.26-6.96,11.41-1.39-7.15,8.35ZM91.1,87.72h0s7.47-8.72,7.47-8.72l4.65,3.96-16.63,20.21,4.52-15.38s0-.05,0-.07M111.39,80.83h-6.05c-.06,0-.12.02-.16.06l-1.72,1.68-2.72-2.31,16.44-26.28-5.8,26.84ZM131.76,89.05l-19.93-8.1,6.07-28.12c.02-.11-.03-.21-.14-.26-.1-.04-.22,0-.28.09l-15.72,25.12-32.49-19.78c-.07-.04-.16-.04-.24,0-.07.05-.11.13-.11.21l1.77,21.4h0s-1.94,3.63-1.94,3.63c-.04.08-.03.17.02.25.06.07.15.1.23.08l2.3-.6,4.85,12.87h0s.84,13.76.84,13.76c0,.09.07.17.16.2.02,0,.05.01.07.01.07,0,.13-.03.17-.08l3.8-4.58.8,4.39c.01.07.06.13.12.16.03.02.07.03.1.03.03,0,.06,0,.09-.02l2.6-1.17s.02-.03.03-.04l14.92-6.45,10.61,3.28c.07.02.14,0,.2-.03.06-.04.09-.11.09-.18v-8.72l20.96-6.9c.09-.03.15-.11.15-.21,0-.09-.05-.18-.14-.22"/>
</svg>