<?xml version="1.0" encoding="UTF-8"?>
<svg id="Ebene_3" data-name="Ebene 3" xmlns="http://www.w3.org/2000/svg" xmlns:xlink="http://www.w3.org/1999/xlink" viewBox="0 0 552.82 505.63">
  <defs>
    <style>
      .cls-1, .cls-2, .cls-3, .cls-4, .cls-5, .cls-6, .cls-7, .cls-8 {
        stroke-width: 5px;
      }

      .cls-1, .cls-4, .cls-9, .cls-6, .cls-10, .cls-11, .cls-12 {
        stroke-linecap: round;
        stroke-linejoin: round;
      }

      .cls-1, .cls-9, .cls-13, .cls-14, .cls-15, .cls-10, .cls-16, .cls-11 {
        stroke: #000;
      }

      .cls-1, .cls-9, .cls-6, .cls-15, .cls-10, .cls-16, .cls-12 {
        fill: none;
      }

      .cls-2 {
        filter: url(#drop-shadow-14);
        stroke: #3f7fba;
      }

      .cls-2, .cls-3, .cls-5, .cls-13, .cls-17, .cls-14, .cls-7, .cls-11, .cls-8 {
        fill: #fff;
      }

      .cls-2, .cls-3, .cls-5, .cls-13, .cls-14, .cls-15, .cls-16, .cls-7, .cls-8 {
        stroke-miterlimit: 10;
      }

      .cls-18 {
        fill: #d7dc9f;
      }

      .cls-3 {
        filter: url(#drop-shadow-12);
        stroke: #f2e39f;
      }

      .cls-19 {
        fill: #9fbfdc;
      }

      .cls-4 {
        stroke: #3b3231;
      }

      .cls-4, .cls-20 {
        fill: #b0ba40;
      }

      .cls-21 {
        fill: #755845;
      }

      .cls-5 {
        filter: url(#drop-shadow-11);
        stroke: #e6af3f;
      }

      .cls-22 {
        fill: #f8f8ef;
      }

      .cls-6 {
        stroke: #fff;
      }

      .cls-14, .cls-15, .cls-10, .cls-11 {
        stroke-width: .5px;
      }

      .cls-7 {
        filter: url(#drop-shadow-15);
        stroke: #b0ba40;
      }

      .cls-8 {
        filter: url(#drop-shadow-13);
        stroke: #ba463f;
      }

      .cls-23 {
        font-family: Poppins-Bold, Poppins;
        font-size: 12px;
        font-weight: 700;
      }

      .cls-12 {
        stroke: #d7dc9f;
        stroke-width: 3px;
      }

      .cls-24 {
        fill: #3f7fba;
      }
    </style>
    <filter id="drop-shadow-11" x="280.45" y="78.59" width="111" height="111" filterUnits="userSpaceOnUse">
      <feOffset dx="0" dy="0"/>
      <feGaussianBlur result="blur" stdDeviation="5.67"/>
      <feFlood flood-color="#000" flood-opacity=".2"/>
      <feComposite in2="blur" operator="in"/>
      <feComposite in="SourceGraphic"/>
    </filter>
    <filter id="drop-shadow-12" x="417.45" y="193.59" width="111" height="110" filterUnits="userSpaceOnUse">
      <feOffset dx="0" dy="0"/>
      <feGaussianBlur result="blur-2" stdDeviation="5.67"/>
      <feFlood flood-color="#000" flood-opacity=".1"/>
      <feComposite in2="blur-2" operator="in"/>
      <feComposite in="SourceGraphic"/>
    </filter>
    <filter id="drop-shadow-13" x="14.45" y="83.59" width="111" height="111" filterUnits="userSpaceOnUse">
      <feOffset dx="0" dy="0"/>
      <feGaussianBlur result="blur-3" stdDeviation="5.67"/>
      <feFlood flood-color="#000" flood-opacity=".2"/>
      <feComposite in2="blur-3" operator="in"/>
      <feComposite in="SourceGraphic"/>
    </filter>
    <filter id="drop-shadow-14" x="175.45" y="262.59" width="111" height="111" filterUnits="userSpaceOnUse">
      <feOffset dx="0" dy="0"/>
      <feGaussianBlur result="blur-4" stdDeviation="5.67"/>
      <feFlood flood-color="#000" flood-opacity=".2"/>
      <feComposite in2="blur-4" operator="in"/>
      <feComposite in="SourceGraphic"/>
    </filter>
    <filter id="drop-shadow-15" x="277.94" y="239.08" width="162" height="161" filterUnits="userSpaceOnUse">
      <feOffset dx="0" dy="0"/>
      <feGaussianBlur result="blur-5" stdDeviation="14.17"/>
      <feFlood flood-color="#000" flood-opacity=".2"/>
      <feComposite in2="blur-5" operator="in"/>
      <feComposite in="SourceGraphic"/>
    </filter>
  </defs>
  <g>
    <line class="cls-12" x1="375.86" y1="347.19" x2="391.08" y2="341.75"/>
    <line class="cls-12" x1="375.86" y1="356.98" x2="391.08" y2="351.54"/>
    <line class="cls-12" x1="405.09" y1="337.27" x2="420.31" y2="331.83"/>
    <line class="cls-12" x1="405.09" y1="347.06" x2="420.31" y2="341.62"/>
    <line class="cls-12" x1="394.55" y1="364.19" x2="409.78" y2="358.75"/>
    <line class="cls-12" x1="394.55" y1="373.98" x2="409.78" y2="368.54"/>
    <g>
      <line class="cls-12" x1="422.43" y1="353.99" x2="437.65" y2="348.55"/>
      <line class="cls-12" x1="422.43" y1="363.78" x2="437.65" y2="358.34"/>
    </g>
  </g>
  <rect class="cls-18" x="378.96" y="201.37" width="173.85" height="94.46" rx="28.73" ry="28.73"/>
  <rect class="cls-18" x="29.39" y="50.76" width="178.41" height="220.25" rx="44.44" ry="44.44"/>
  <rect class="cls-18" x="-60.7" y="118.62" width="187.42" height="76.12" rx="26.77" ry="26.77"/>
  <rect class="cls-18" x="-31.7" y="31.25" width="187.42" height="123.49" rx="34.1" ry="34.1"/>
  <rect class="cls-18" x="53.79" y="103.29" width="187.42" height="97.16" rx="30.25" ry="30.25"/>
  <path class="cls-18" d="M147.85,312.55H39.32c-14.94,0-27.04,12.11-27.04,27.04v2.62c-11.66,3-20.28,13.59-20.28,26.19v35.41c0,14.94,12.11,27.04,27.04,27.04h4.58v14.59c0,13.41,10.87,24.27,24.27,24.27h82.46c13.41,0,24.27-10.87,24.27-24.27v-40.95c0-.11,0-.23,0-.34,0-.11,0-.23,0-.34v-2.62c11.66-3,20.28-13.59,20.28-26.19v-35.41c0-14.94-12.11-27.04-27.04-27.04Z"/>
  <rect class="cls-19" x="218.53" y="223.98" width="80.58" height="76.79" rx="17.63" ry="17.63"/>
  <path class="cls-19" d="M-85.26,283.76h346.66c3.6,0,6.52,2.92,6.52,6.52v3.96c0,3.6-2.92,6.52-6.52,6.52H-85.26v-17.01h0Z"/>
  <path class="cls-19" d="M284.75,174.18h403.33v17.01h-403.33c-3.88,0-7.03-3.15-7.03-7.03v-2.94c0-3.88,3.15-7.03,7.03-7.03Z"/>
  <rect class="cls-19" x="266.53" y="174.18" width="80.58" height="73.7" rx="17.27" ry="17.27"/>
  <rect class="cls-19" x="241.04" y="196.68" width="80.58" height="73.7" rx="17.27" ry="17.27"/>
  <line class="cls-6" x1="240.93" y1="320.09" x2="362.41" y2="320.09"/>
  <rect class="cls-22" x="58.22" y="153.69" width="100.99" height="95.36" rx="22" ry="22"/>
  <g>
    <path class="cls-24" d="M478.67,383.22h25.02c6.99,0,12.67,5.68,12.67,12.67v25.02c0,6.99-5.68,12.67-12.67,12.67h-25.02c-6.99,0-12.67-5.68-12.67-12.67v-25.02c0-6.99,5.68-12.67,12.67-12.67Z"/>
    <path class="cls-17" d="M503.69,385.72c5.62,0,10.17,4.55,10.17,10.17v25.02c0,5.62-4.55,10.17-10.17,10.17h-25.02c-5.61,0-10.17-4.55-10.17-10.17v-25.02c0-5.62,4.55-10.17,10.17-10.17h25.02M503.69,380.72h-25.02c-8.36,0-15.17,6.8-15.17,15.17v25.02c0,8.36,6.8,15.17,15.17,15.17h25.02c8.36,0,15.17-6.8,15.17-15.17v-25.02c0-8.36-6.8-15.17-15.17-15.17h0Z"/>
  </g>
  <path class="cls-1" d="M473.02,209.3v-38.63c0-20.02-17.39-36.25-38.84-36.25H109.15c-21.45,0-38.84,16.23-38.84,36.25v-.08"/>
  <circle class="cls-5" cx="336.33" cy="134.42" r="35.43"/>
  <path class="cls-17" d="M498.32,407.99c-.56,1.01-1.41,1.82-2.57,2.43-1.15.62-2.59.93-4.3.93h-3.16v7.52h-5.1v-20.95h8.27c1.67,0,3.08.29,4.24.86,1.15.58,2.02,1.37,2.6,2.39.58,1.02.86,2.18.86,3.49,0,1.21-.28,2.32-.84,3.33ZM493.25,406.61c.48-.46.72-1.1.72-1.94s-.24-1.48-.72-1.94c-.48-.46-1.2-.68-2.18-.68h-2.78v5.25h2.78c.97,0,1.7-.23,2.18-.68Z"/>
  <circle class="cls-3" cx="473.02" cy="248.6" r="35.43"/>
  <line class="cls-1" x1="77.22" y1="155.6" x2="241.2" y2="319.58"/>
  <g>
    <circle class="cls-18" cx="297.47" cy="335.02" r="2.93"/>
    <circle class="cls-18" cx="297.47" cy="344.81" r="2.93"/>
    <circle class="cls-18" cx="307.29" cy="331.87" r="2.93"/>
    <circle class="cls-18" cx="307.29" cy="341.66" r="2.93"/>
  </g>
  <g>
    <circle class="cls-18" cx="286.93" cy="361.94" r="2.93"/>
    <circle class="cls-18" cx="286.93" cy="371.73" r="2.93"/>
    <circle class="cls-18" cx="296.76" cy="358.79" r="2.93"/>
    <circle class="cls-18" cx="296.76" cy="368.58" r="2.93"/>
  </g>
  <g>
    <circle class="cls-18" cx="268.23" cy="344.94" r="2.93"/>
    <circle class="cls-18" cx="268.23" cy="354.73" r="2.93"/>
    <circle class="cls-18" cx="278.06" cy="341.8" r="2.93"/>
    <circle class="cls-18" cx="278.06" cy="351.59" r="2.93"/>
  </g>
  <g>
    <circle class="cls-18" cx="314.8" cy="351.74" r="2.93"/>
    <circle class="cls-18" cx="314.8" cy="361.53" r="2.93"/>
    <circle class="cls-18" cx="324.63" cy="348.59" r="2.93"/>
    <circle class="cls-18" cx="324.63" cy="358.38" r="2.93"/>
  </g>
  <g>
    <line class="cls-4" x1="183.11" y1="212.56" x2="182.93" y2="228.21"/>
    <circle class="cls-20" cx="183.02" cy="210.72" r="10.58"/>
  </g>
  <g>
    <line class="cls-4" x1="28.17" y1="76.42" x2="27.99" y2="92.06"/>
    <circle class="cls-20" cx="28.08" cy="74.58" r="10.58"/>
  </g>
  <g>
    <line class="cls-4" x1="44.31" y1="376.03" x2="44.13" y2="391.67"/>
    <circle class="cls-20" cx="44.22" cy="374.19" r="10.58"/>
  </g>
  <g>
    <line class="cls-4" x1="114.33" y1="423.16" x2="114.15" y2="438.8"/>
    <circle class="cls-20" cx="114.24" cy="421.32" r="10.58"/>
  </g>
  <g>
    <line class="cls-4" x1="413.13" y1="232.42" x2="412.94" y2="248.07"/>
    <circle class="cls-20" cx="413.04" cy="230.58" r="10.58"/>
  </g>
  <g>
    <line class="cls-4" x1="171.14" y1="83.88" x2="170.95" y2="99.53"/>
    <path class="cls-20" d="M180.38,90.01c.49,1.08-.3,2.3-1.48,2.31l-7.91.05-7.91-.05c-1.19,0-1.97-1.23-1.48-2.31l7.9-17.56c.58-1.29,2.41-1.29,2.99,0l7.9,17.56Z"/>
  </g>
  <g>
    <line class="cls-4" x1="126.23" y1="347.42" x2="126.05" y2="363.06"/>
    <path class="cls-20" d="M135.47,353.55c.49,1.08-.3,2.3-1.48,2.31l-7.91.05-7.91-.05c-1.19,0-1.97-1.23-1.48-2.31l7.9-17.56c.58-1.29,2.41-1.29,2.99,0l7.9,17.56Z"/>
  </g>
  <g>
    <line class="cls-4" x1="528.97" y1="265.08" x2="528.79" y2="280.73"/>
    <path class="cls-20" d="M538.21,271.21c.49,1.08-.3,2.3-1.48,2.31l-7.91.05-7.91-.05c-1.19,0-1.97-1.23-1.48-2.31l7.9-17.56c.58-1.29,2.41-1.29,2.99,0l7.9,17.56Z"/>
  </g>
  <rect class="cls-21" x="467.64" y="167.43" width="10.81" height="30.64"/>
  <polyline class="cls-15" points="488.3 245.77 491.19 244.18 493.64 241.83 494.23 238.77 493.4 237.53"/>
  <polyline class="cls-15" points="481.13 235.26 483.69 233.18 486.79 231.8 489.84 232.39 490.68 233.63"/>
  <polyline class="cls-15" points="461.45 256.14 471.31 258.06 470.34 263.06 468.72 271.35 476.35 265.18 488.44 245.56 493.37 237.54 492.01 235.52 461.45 256.14"/>
  <polyline class="cls-15" points="461.44 256.25 463.36 246.39 450.06 243.79 458.65 239.04 481.38 235.21 490.68 233.63 492.01 235.52 461.44 256.25"/>
  <line class="cls-15" x1="473.39" y1="248.2" x2="470.34" y2="263.06"/>
  <line class="cls-15" x1="458.18" y1="245.38" x2="473.39" y2="248.2"/>
  <polygon points="463.41 247.59 470.68 258.04 468.97 257.64 462.88 248.69 463.41 247.59"/>
  <polygon points="462.42 251.16 466.91 257.32 465.85 257.09 462.09 251.8 462.42 251.16"/>
  <polygon points="471.69 255.87 465 246.68 466.57 247.03 472.17 254.9 471.69 255.87"/>
  <polyline points="490.68 233.63 494.32 234.06 493.4 237.53"/>
  <circle class="cls-8" cx="70.31" cy="138.72" r="35.43"/>
  <g>
    <path class="cls-11" d="M72.01,128.71c.56-.59,1.51-1.73,2.03-3.45.77-2.53.12-4.68-.15-5.45.55.62,1.39,1.72,1.93,3.33.61,1.82.53,3.39.42,4.24.41-.68,1.1-2.05,1.2-3.92.13-2.36-.76-4.11-1.16-4.8.76.64,2.24,2.08,2.93,4.39.28.93.36,1.78.36,2.46,1.07-.96,2.92-2.36,5.55-3.24,1.65-.55,3.13-.74,4.26-.8-1.25.91-2.65,2.06-4.06,3.5-1.73,1.75-3.06,3.48-4.05,4.97.95-.61,2.53-1.47,4.67-1.87,1.61-.31,2.99-.25,3.97-.14-.72.12-2.41.49-3.95,1.88-1.13,1.02-1.7,2.16-1.96,2.81.67-.03,1.66.01,2.79.35,1.4.42,2.4,1.11,2.97,1.58-.87-.23-3.1-.67-5.62.26-1.62.6-2.71,1.53-3.32,2.14l-8.81-8.26Z"/>
    <circle class="cls-11" cx="58.32" cy="151.18" r="4.69"/>
    <circle class="cls-11" cx="60.4" cy="145.07" r="4.69"/>
    <circle class="cls-11" cx="64.53" cy="148.93" r="4.69"/>
    <circle class="cls-11" cx="62.3" cy="138.47" r="4.69"/>
    <circle class="cls-11" cx="66.43" cy="142.32" r="4.69"/>
    <circle class="cls-11" cx="70.56" cy="146.17" r="4.69"/>
    <circle class="cls-11" cx="65.31" cy="131.91" r="4.69"/>
    <circle class="cls-11" cx="69.44" cy="135.76" r="4.69"/>
    <circle class="cls-11" cx="73.56" cy="139.62" r="4.69"/>
    <circle class="cls-11" cx="77.69" cy="143.47" r="4.69"/>
    <circle class="cls-11" cx="71.68" cy="129.48" r="4.69"/>
    <circle class="cls-11" cx="75.81" cy="133.34" r="4.69"/>
    <circle class="cls-11" cx="79.94" cy="137.19" r="4.69"/>
  </g>
  <g>
    <circle class="cls-13" cx="362.2" cy="162.31" r="13.44"/>
    <text class="cls-23" transform="translate(358.14 166.79)"><tspan x="0" y="0">4</tspan></text>
  </g>
  <g>
    <circle class="cls-13" cx="500.37" cy="273.57" r="13.44"/>
    <text class="cls-23" transform="translate(496.31 278.05)"><tspan x="0" y="0">5</tspan></text>
  </g>
  <g>
    <circle class="cls-13" cx="95.41" cy="162.31" r="13.44"/>
    <text class="cls-23" transform="translate(91.78 166.79)"><tspan x="0" y="0">3</tspan></text>
  </g>
  <circle class="cls-13" cx="88.13" cy="221.65" r="17.01"/>
  <g>
    <path class="cls-16" d="M88.13,211.34l-8.8,13.48c-1.15,1.76-.55,3.96,1.41,5.13,1.7,1.01,4.06,1.94,7.06,2.01.11,0,.22,0,.33,0,3.19,0,5.7-1.01,7.48-2.08,1.91-1.15,2.45-3.34,1.32-5.07-2.93-4.49-5.86-8.98-8.79-13.47Z"/>
    <path class="cls-9" d="M84.65,231.41v-3.09c0-1.92,1.56-3.48,3.48-3.48h0c1.92,0,3.48,1.56,3.48,3.48v3.09"/>
  </g>
  <circle class="cls-13" cx="419.15" cy="417.57" r="17.01"/>
  <path class="cls-9" d="M410.93,425.33v-7.31c0-4.54,3.68-8.22,8.22-8.22h0c4.54,0,8.22,3.68,8.22,8.22v7.31"/>
  <circle class="cls-13" cx="399.19" cy="85.38" r="17.01"/>
  <g>
    <path class="cls-16" d="M399.19,75.08l-8.8,13.48c-1.15,1.76-.55,3.96,1.41,5.13,1.7,1.01,4.06,1.94,7.06,2.01.11,0,.22,0,.33,0,3.19,0,5.7-1.01,7.48-2.08,1.91-1.15,2.45-3.34,1.32-5.07-2.93-4.49-5.86-8.98-8.79-13.47Z"/>
    <path class="cls-9" d="M395.7,95.15v-3.09c0-1.92,1.56-3.48,3.48-3.48h0c1.92,0,3.48,1.56,3.48,3.48v3.09"/>
  </g>
  <circle class="cls-13" cx="271.86" cy="85.88" r="17.01"/>
  <g>
    <line class="cls-9" x1="265.13" y1="91.88" x2="265.13" y2="82.4"/>
    <line class="cls-9" x1="269.72" y1="91.88" x2="269.72" y2="82.4"/>
    <line class="cls-9" x1="274.32" y1="91.88" x2="274.32" y2="82.4"/>
    <line class="cls-9" x1="262.74" y1="93.88" x2="281.33" y2="93.88"/>
    <line class="cls-9" x1="278.91" y1="91.88" x2="278.91" y2="82.4"/>
    <path class="cls-16" d="M263.53,80.76h16.75c1.02,0,1.25-1.26.28-1.54l-8.57-2.43c-.18-.05-.38-.05-.57,0l-8.18,2.43c-.96.29-.73,1.53.29,1.53Z"/>
  </g>
  <circle class="cls-13" cx="506.28" cy="342.96" r="17.01"/>
  <line class="cls-9" x1="499.55" y1="348.96" x2="499.55" y2="339.47"/>
  <line class="cls-9" x1="497.16" y1="350.96" x2="515.75" y2="350.96"/>
  <line class="cls-9" x1="513.33" y1="348.96" x2="513.33" y2="339.47"/>
  <path class="cls-9" d="M516.17,338.25h-19.74l2.89-3.26c.7-.79,1.71-1.25,2.77-1.25h8.41c1.06,0,2.07.45,2.77,1.25l2.89,3.26Z"/>
  <line class="cls-1" x1="235.9" y1="319.14" x2="357.39" y2="319.14"/>
  <circle class="cls-2" cx="231.2" cy="318.43" r="35.43"/>
  <g>
    <g>
      <polyline class="cls-17" points="245.83 311.78 240.81 308.95 235.79 311.78 230.77 308.95 225.74 311.78 220.72 308.95 215.69 311.78"/>
      <polyline class="cls-10" points="245.83 311.78 240.81 308.95 235.79 311.78 230.77 308.95 225.74 311.78 220.72 308.95 215.69 311.78"/>
    </g>
    <g>
      <polyline class="cls-17" points="245.83 317.52 240.81 314.69 235.79 317.52 230.77 314.69 225.74 317.52 220.72 314.69 215.69 317.52"/>
      <polyline class="cls-10" points="245.83 317.52 240.81 314.69 235.79 317.52 230.77 314.69 225.74 317.52 220.72 314.69 215.69 317.52"/>
    </g>
    <g>
      <polyline class="cls-17" points="245.83 323.26 240.81 320.43 235.79 323.26 230.77 320.43 225.74 323.26 220.72 320.43 215.69 323.26"/>
      <polyline class="cls-10" points="245.83 323.26 240.81 320.43 235.79 323.26 230.77 320.43 225.74 323.26 220.72 320.43 215.69 323.26"/>
    </g>
    <g>
      <polyline class="cls-17" points="245.83 329 240.81 326.17 235.79 329 230.77 326.17 225.74 329 220.72 326.17 215.69 329"/>
      <polyline class="cls-10" points="245.83 329 240.81 326.17 235.79 329 230.77 326.17 225.74 329 220.72 326.17 215.69 329"/>
    </g>
  </g>
  <g>
    <circle class="cls-13" cx="257.99" cy="344.26" r="13.44"/>
    <text class="cls-23" transform="translate(254.56 348.74)"><tspan x="0" y="0">2</tspan></text>
  </g>
  <circle class="cls-13" cx="207.79" cy="379.27" r="17.01"/>
  <g>
    <path class="cls-16" d="M207.79,368.97l-8.8,13.48c-1.15,1.76-.55,3.96,1.41,5.13,1.7,1.01,4.06,1.94,7.06,2.01.11,0,.22,0,.33,0,3.19,0,5.7-1.01,7.48-2.08,1.91-1.15,2.45-3.34,1.32-5.07-2.93-4.49-5.86-8.98-8.79-13.47Z"/>
    <path class="cls-9" d="M204.31,389.04v-3.09c0-1.92,1.56-3.48,3.48-3.48h0c1.92,0,3.48,1.56,3.48,3.48v3.09"/>
  </g>
  <circle class="cls-7" cx="358.93" cy="319.58" r="35.43"/>
  <path class="cls-14" d="M346.57,328.52c-2.02-4.13-5.4-6.08-6.65-6.73,1.43.13,3.81.54,6.39,1.93,2.93,1.59,4.68,3.68,5.55,4.88-.29-1.35-1.04-3.91-3.11-6.39-2.62-3.14-5.82-4.31-7.15-4.71,1.73-.09,5.31-.02,8.92,2.1,1.46.86,2.56,1.84,3.36,2.69.22-2.49.9-6.45,3.2-10.68,1.43-2.65,3.09-4.65,4.46-6.06-.5,2.64-.91,5.75-1.01,9.25-.12,4.28.25,8.04.76,11.1.48-1.9,1.47-4.87,3.7-7.91,1.68-2.29,3.5-3.87,4.88-4.88-.77,1-2.47,3.48-2.78,7.07-.22,2.64.4,4.74.84,5.89.82-.83,2.12-1.95,3.95-2.86,2.28-1.13,4.36-1.43,5.64-1.51-1.38.75-4.72,2.81-6.81,6.98"/>
  <g>
    <circle class="cls-13" cx="380.89" cy="346.79" r="13.44"/>
    <text class="cls-23" transform="translate(378.64 351.27)"><tspan x="0" y="0">1</tspan></text>
  </g>
  <path d="M504.78,382.04c7.04,0,12.76,5.71,12.76,12.76v27.2c0,7.04-5.71,12.76-12.76,12.76h-27.2c-7.04,0-12.76-5.71-12.76-12.76v-27.2c0-7.04,5.71-12.76,12.76-12.76h27.2M504.78,381.04h-27.2c-7.58,0-13.76,6.17-13.76,13.76v27.2c0,7.58,6.17,13.76,13.76,13.76h27.2c7.58,0,13.76-6.17,13.76-13.76v-27.2c0-7.58-6.17-13.76-13.76-13.76h0Z"/>
  <rect class="cls-13" x="99.31" y="224.83" width="14.25" height="14.25" rx="3.19" ry="3.19"/>
  <text class="cls-23" transform="translate(102.07 236.19)"><tspan x="0" y="0">D</tspan></text>
  <rect class="cls-13" x="410.22" y="88.57" width="14.25" height="14.25" rx="3.19" ry="3.19"/>
  <text class="cls-23" transform="translate(412.98 99.93)"><tspan x="0" y="0">D</tspan></text>
  <rect class="cls-13" x="283.11" y="89.22" width="14.25" height="14.25" rx="3.19" ry="3.19"/>
  <text class="cls-23" transform="translate(286.83 100.57)"><tspan x="0" y="0">E</tspan></text>
  <rect class="cls-13" x="218.91" y="382.82" width="14.25" height="14.25" rx="3.19" ry="3.19"/>
  <text class="cls-23" transform="translate(221.68 394.18)"><tspan x="0" y="0">D</tspan></text>
  <rect class="cls-13" x="318.56" y="365.09" width="14.25" height="14.25" rx="3.19" ry="3.19"/>
  <text class="cls-23" transform="translate(322.3 376.45)"><tspan x="0" y="0">F</tspan></text>
  <rect class="cls-13" x="430.53" y="420.87" width="14.25" height="14.25" rx="3.19" ry="3.19"/>
  <rect class="cls-13" x="510.41" y="421.85" width="14.25" height="14.25" rx="3.19" ry="3.19"/>
  <rect class="cls-13" x="517.53" y="346.43" width="14.25" height="14.25" rx="3.19" ry="3.19"/>
  <text class="cls-23" transform="translate(433.75 432.27)"><tspan x="0" y="0">B</tspan></text>
  <text class="cls-23" transform="translate(513.22 433)"><tspan x="0" y="0">A</tspan></text>
  <text class="cls-23" transform="translate(520.01 357.72)"><tspan x="0" y="0">G</tspan></text>
  <rect class="cls-13" x="430.46" y="364.14" width="14.25" height="14.25" rx="3.19" ry="3.19"/>
  <text class="cls-23" transform="translate(433.01 375.61)"><tspan x="0" y="0">C</tspan></text>
  <g>
    <g>
      <polygon class="cls-10" points="335.87 118.13 339.29 121.48 343.92 120.28 345.2 124.9 349.81 126.17 348.61 130.81 351.97 134.22 348.61 137.63 349.81 142.27 345.2 143.54 343.92 148.16 339.29 146.96 335.87 150.31 332.46 146.96 327.83 148.16 326.55 143.54 321.94 142.27 323.14 137.63 319.78 134.22 323.14 130.81 321.94 126.17 326.55 124.9 327.83 120.28 332.46 121.48 335.87 118.13"/>
      <circle class="cls-10" cx="335.87" cy="134.22" r="12.75"/>
    </g>
    <g>
      <path class="cls-15" d="M335.93,116.55v-5.86,5.86Z"/>
      <path class="cls-15" d="M335.93,158.15v-5.86,5.86Z"/>
      <path class="cls-15" d="M354.14,134.22h5.86-5.86Z"/>
      <path class="cls-15" d="M312.66,134.22h5.86-5.86Z"/>
      <path class="cls-15" d="M319.91,118.81l4.11,4.18-4.11-4.18Z"/>
      <path class="cls-15" d="M351.75,118.81l-4.11,4.18,4.11-4.18Z"/>
      <path class="cls-15" d="M324.02,145.25l-4.11,4.18,4.11-4.18Z"/>
      <path class="cls-15" d="M350.77,149.4l-4.18-4.11,4.18,4.11Z"/>
    </g>
  </g>
</svg>