<?xml version="1.0" encoding="UTF-8"?>
<svg xmlns="http://www.w3.org/2000/svg" xmlns:xlink="http://www.w3.org/1999/xlink" viewBox="0 0 794.04 639">
  <defs>
    <style>
      .cls-1 {
        stroke-width: 3px;
      }

      .cls-1, .cls-2 {
        stroke: #b0ba40;
      }

      .cls-1, .cls-3, .cls-4, .cls-5, .cls-6, .cls-7 {
        stroke-linecap: round;
        stroke-linejoin: round;
      }

      .cls-1, .cls-3, .cls-5, .cls-8, .cls-9, .cls-6 {
        fill: none;
      }

      .cls-10, .cls-11 {
        font-family: Poppins-Bold, Poppins;
        font-size: 16px;
        font-weight: 700;
      }

      .cls-12 {
        filter: url(#drop-shadow-4);
        stroke: #e6af3f;
      }

      .cls-12, .cls-2, .cls-13, .cls-4, .cls-14, .cls-5, .cls-15 {
        stroke-width: 5px;
      }

      .cls-12, .cls-2, .cls-13, .cls-16, .cls-17, .cls-14, .cls-11, .cls-18, .cls-7, .cls-15 {
        fill: #fff;
      }

      .cls-12, .cls-2, .cls-13, .cls-16, .cls-14, .cls-18, .cls-8, .cls-9, .cls-15 {
        stroke-miterlimit: 10;
      }

      .cls-19 {
        fill: #9fbfdc;
      }

      .cls-2 {
        filter: url(#drop-shadow-1);
      }

      .cls-20 {
        fill: #755845;
      }

      .cls-3, .cls-8 {
        stroke: #626544;
      }

      .cls-13 {
        filter: url(#drop-shadow-3);
        stroke: #ba463f;
      }

      .cls-21 {
        fill: #b0ba40;
      }

      .cls-4 {
        stroke: #3b3231;
      }

      .cls-4, .cls-22 {
        fill: #626544;
      }

      .cls-16, .cls-18, .cls-9, .cls-6, .cls-7 {
        stroke: #000;
      }

      .cls-14 {
        filter: url(#drop-shadow-5);
        stroke: #f2e39f;
      }

      .cls-5 {
        stroke: #fff;
      }

      .cls-18, .cls-9, .cls-6, .cls-7 {
        stroke-width: .5px;
      }

      .cls-15 {
        filter: url(#drop-shadow-2);
        stroke: #9fbfdc;
      }

      .cls-23 {
        fill: #3f7fba;
      }
    </style>
    <filter id="drop-shadow-1" x="436.52" y="324.48" width="163" height="163" filterUnits="userSpaceOnUse">
      <feOffset dx="0" dy="0"/>
      <feGaussianBlur result="blur" stdDeviation="14.17"/>
      <feFlood flood-color="#000" flood-opacity=".2"/>
      <feComposite in2="blur" operator="in"/>
      <feComposite in="SourceGraphic"/>
    </filter>
    <filter id="drop-shadow-2" x="296.03" y="348.99" width="112" height="112" filterUnits="userSpaceOnUse">
      <feOffset dx="0" dy="0"/>
      <feGaussianBlur result="blur-2" stdDeviation="5.67"/>
      <feFlood flood-color="#000" flood-opacity=".2"/>
      <feComposite in2="blur-2" operator="in"/>
      <feComposite in="SourceGraphic"/>
    </filter>
    <filter id="drop-shadow-3" x="86.03" y="111.99" width="112" height="112" filterUnits="userSpaceOnUse">
      <feOffset dx="0" dy="0"/>
      <feGaussianBlur result="blur-3" stdDeviation="5.67"/>
      <feFlood flood-color="#000" flood-opacity=".2"/>
      <feComposite in2="blur-3" operator="in"/>
      <feComposite in="SourceGraphic"/>
    </filter>
    <filter id="drop-shadow-4" x="443.03" y="111.99" width="112" height="112" filterUnits="userSpaceOnUse">
      <feOffset dx="0" dy="0"/>
      <feGaussianBlur result="blur-4" stdDeviation="5.67"/>
      <feFlood flood-color="#000" flood-opacity=".2"/>
      <feComposite in2="blur-4" operator="in"/>
      <feComposite in="SourceGraphic"/>
    </filter>
    <filter id="drop-shadow-5" x="611.03" y="257.99" width="112" height="112" filterUnits="userSpaceOnUse">
      <feOffset dx="0" dy="0"/>
      <feGaussianBlur result="blur-5" stdDeviation="5.67"/>
      <feFlood flood-color="#000" flood-opacity=".1"/>
      <feComposite in2="blur-5" operator="in"/>
      <feComposite in="SourceGraphic"/>
    </filter>
  </defs>
  <g id="Ebene_2" data-name="Ebene 2">
    <rect class="cls-22" x=".04" width="794" height="639"/>
  </g>
  <g id="wald">
    <rect class="cls-21" x="544.18" y="256.2" width="226.25" height="122.92" rx="37.38" ry="37.38"/>
    <path class="cls-21" d="M243.43,400.88H102.19c-19.44,0-35.19,15.76-35.19,35.19v3.41c-15.18,3.91-26.4,17.69-26.4,34.09v46.08c0,19.44,15.76,35.19,35.19,35.19h5.95v18.99c0,17.45,14.14,31.59,31.59,31.59h107.31c17.45,0,31.59-14.14,31.59-31.59v-53.29c0-.15,0-.3-.01-.45,0-.15.01-.3.01-.44v-3.41c15.18-3.91,26.4-17.69,26.4-34.09v-46.08c0-19.44-15.76-35.19-35.19-35.19Z"/>
    <path class="cls-21" d="M333.15,128.58v-20.21c0-33.43-27.1-60.53-60.53-60.53h-31.94c-8.03-8.04-19.13-13.01-31.4-13.01H54.15c-24.51,0-44.38,19.87-44.38,44.38v71.94c0,2.17.16,4.29.46,6.38C3.93,163.49,0,171.93,0,181.29v33.49C0,232.89,14.68,247.57,32.78,247.57h56.47v38.71c0,33.43,27.1,60.53,60.53,60.53h122.83c33.43,0,60.53-27.1,60.53-60.53v-71.47c17.6-.41,31.75-14.8,31.75-32.5v-21.24c0-17.7-14.15-32.09-31.75-32.5ZM258.21,289.62c0,15.81-12.82,28.63-28.63,28.63h-74.17c-15.81,0-28.63-12.82-28.63-28.63v-66.84c0-15.81,12.82-28.63,28.63-28.63h74.17c15.81,0,28.63,12.82,28.63,28.63v66.84Z"/>
    <g>
      <line class="cls-4" x1="292.74" y1="272.86" x2="292.5" y2="293.22"/>
      <circle class="cls-22" cx="292.62" cy="270.46" r="13.77"/>
    </g>
    <g>
      <line class="cls-4" x1="87.68" y1="93.59" x2="87.44" y2="113.95"/>
      <circle class="cls-22" cx="87.56" cy="91.19" r="13.77"/>
    </g>
    <g>
      <line class="cls-4" x1="108.68" y1="483.49" x2="108.44" y2="503.85"/>
      <circle class="cls-22" cx="108.56" cy="481.09" r="13.77"/>
    </g>
    <g>
      <line class="cls-4" x1="199.8" y1="544.82" x2="199.56" y2="565.18"/>
      <circle class="cls-22" cx="199.68" cy="542.43" r="13.77"/>
    </g>
    <g>
      <line class="cls-4" x1="588.64" y1="296.61" x2="588.41" y2="316.97"/>
      <circle class="cls-22" cx="588.53" cy="294.21" r="13.77"/>
    </g>
    <g>
      <line class="cls-4" x1="33.07" y1="193.55" x2="32.83" y2="213.91"/>
      <path class="cls-22" d="M45.09,201.53c.63,1.41-.39,3-1.93,3.01l-10.3.06-10.3-.06c-1.54,0-2.57-1.6-1.93-3.01l10.29-22.85c.75-1.68,3.14-1.68,3.89,0l10.29,22.85Z"/>
    </g>
    <g>
      <line class="cls-4" x1="273.73" y1="103.3" x2="273.49" y2="123.66"/>
      <path class="cls-22" d="M285.75,111.28c.63,1.41-.39,3-1.93,3.01l-10.3.06-10.3-.06c-1.54,0-2.57-1.6-1.93-3.01l10.29-22.85c.75-1.68,3.14-1.68,3.89,0l10.29,22.85Z"/>
    </g>
    <g>
      <line class="cls-4" x1="213.99" y1="444.23" x2="213.75" y2="464.59"/>
      <path class="cls-22" d="M226.01,452.21c.63,1.41-.39,3-1.93,3.01l-10.3.06-10.3-.06c-1.54,0-2.57-1.6-1.93-3.01l10.29-22.85c.75-1.68,3.14-1.68,3.89,0l10.29,22.85Z"/>
    </g>
    <g>
      <line class="cls-4" x1="739.4" y1="339.11" x2="739.16" y2="359.47"/>
      <path class="cls-22" d="M751.42,347.09c.63,1.41-.39,3-1.93,3.01l-10.3.06-10.3-.06c-1.54,0-2.57-1.6-1.93-3.01l10.29-22.85c.75-1.68,3.14-1.68,3.89,0l10.29,22.85Z"/>
    </g>
  </g>
  <g id="wasser">
    <rect class="cls-23" x="335.4" y="285.62" width="104.86" height="99.93" rx="22.95" ry="22.95"/>
    <rect class="cls-23" x="0" y="363.42" width="399.69" height="22.13" rx="7.92" ry="7.92"/>
    <rect class="cls-23" x="412.43" y="220.81" width="381.61" height="22.13" rx="7.74" ry="7.74"/>
    <rect class="cls-23" x="397.87" y="220.81" width="104.86" height="78.01" rx="20.27" ry="20.27"/>
    <rect class="cls-23" x="360" y="251.29" width="104.86" height="84.3" rx="21.08" ry="21.08"/>
  </g>
  <g id="routen">
    <line class="cls-5" x1="364.55" y1="406.7" x2="522.65" y2="406.7"/>
    <path class="cls-5" d="M666.59,292.51v-80.27c0-26.05-22.63-47.17-50.55-47.17l-481.5,2.43"/>
    <line class="cls-5" x1="151.51" y1="192.63" x2="364.91" y2="406.03"/>
    <rect class="cls-20" x="659.59" y="208.02" width="14.06" height="39.87"/>
  </g>
  <g id="stationen2">
    <g>
      <line class="cls-1" x1="548.11" y1="441.14" x2="567.92" y2="434.06"/>
      <line class="cls-1" x1="548.11" y1="453.88" x2="567.92" y2="446.8"/>
      <line class="cls-1" x1="586.15" y1="428.22" x2="605.96" y2="421.14"/>
      <line class="cls-1" x1="586.15" y1="440.96" x2="605.96" y2="433.88"/>
      <line class="cls-1" x1="572.44" y1="463.26" x2="592.25" y2="456.18"/>
      <line class="cls-1" x1="572.44" y1="476" x2="592.25" y2="468.92"/>
      <g>
        <line class="cls-1" x1="608.71" y1="449.99" x2="628.52" y2="442.91"/>
        <line class="cls-1" x1="608.71" y1="462.73" x2="628.52" y2="455.65"/>
      </g>
    </g>
    <g>
      <path class="cls-19" d="M682.66,494.22h32.56c8.68,0,15.73,7.05,15.73,15.73v32.56c0,8.68-7.05,15.73-15.73,15.73h-32.56c-8.68,0-15.73-7.05-15.73-15.73v-32.56c0-8.68,7.05-15.73,15.73-15.73Z"/>
      <path class="cls-17" d="M715.22,496.72c7.31,0,13.23,5.92,13.23,13.23v32.56c0,7.31-5.92,13.23-13.23,13.23h-32.56c-7.31,0-13.23-5.92-13.23-13.23v-32.56c0-7.31,5.92-13.23,13.23-13.23h32.56M715.22,491.72h-32.56c-10.05,0-18.23,8.18-18.23,18.23v32.56c0,10.05,8.18,18.23,18.23,18.23h32.56c10.05,0,18.23-8.18,18.23-18.23v-32.56c0-10.05-8.18-18.23-18.23-18.23h0Z"/>
    </g>
    <path class="cls-17" d="M709.68,525.85c-.73,1.31-1.84,2.36-3.34,3.16-1.5.81-3.37,1.2-5.59,1.2h-4.12v9.79h-6.64v-27.26h10.76c2.17,0,4.01.38,5.51,1.13,1.5.75,2.63,1.79,3.38,3.11.75,1.32,1.13,2.83,1.13,4.54,0,1.58-.36,3.02-1.09,4.33ZM703.08,524.04c.62-.6.93-1.44.93-2.52s-.31-1.93-.93-2.52c-.62-.59-1.57-.89-2.83-.89h-3.61v6.83h3.61c1.27,0,2.21-.3,2.83-.89Z"/>
    <g>
      <circle class="cls-21" cx="438.13" cy="426.12" r="3.81"/>
      <circle class="cls-21" cx="438.13" cy="438.86" r="3.81"/>
      <circle class="cls-21" cx="450.92" cy="422.02" r="3.81"/>
      <circle class="cls-21" cx="450.92" cy="434.76" r="3.81"/>
    </g>
    <g>
      <circle class="cls-21" cx="424.42" cy="461.15" r="3.81"/>
      <circle class="cls-21" cx="424.42" cy="473.89" r="3.81"/>
      <circle class="cls-21" cx="437.21" cy="457.06" r="3.81"/>
      <circle class="cls-21" cx="437.21" cy="469.8" r="3.81"/>
    </g>
    <g>
      <circle class="cls-21" cx="400.09" cy="439.04" r="3.81"/>
      <circle class="cls-21" cx="400.09" cy="451.78" r="3.81"/>
      <circle class="cls-21" cx="412.88" cy="434.94" r="3.81"/>
      <circle class="cls-21" cx="412.88" cy="447.68" r="3.81"/>
    </g>
    <g>
      <circle class="cls-21" cx="460.69" cy="447.88" r="3.81"/>
      <circle class="cls-21" cx="460.69" cy="460.62" r="3.81"/>
      <circle class="cls-21" cx="473.48" cy="443.79" r="3.81"/>
      <circle class="cls-21" cx="473.48" cy="456.53" r="3.81"/>
    </g>
    <text class="cls-11" transform="translate(345.15 505.73)"><tspan x="0" y="0">D</tspan></text>
    <text class="cls-11" transform="translate(479.71 481.69)"><tspan x="0" y="0">F</tspan></text>
    <text class="cls-11" transform="translate(631.55 481.69)"><tspan x="0" y="0">C</tspan></text>
    <text class="cls-11" transform="translate(190.03 299.41)"><tspan x="0" y="0">D</tspan></text>
    <text class="cls-11" transform="translate(622.76 542.72)"><tspan x="0" y="0">B</tspan></text>
    <text class="cls-11" transform="translate(740.95 560.5)"><tspan x="0" y="0">A</tspan></text>
    <g>
      <circle class="cls-17" cx="165.71" cy="278.58" r="24"/>
      <g>
        <path class="cls-8" d="M165.71,264.04l-12.42,19.02c-1.62,2.48-.78,5.59,1.98,7.23,2.39,1.42,5.73,2.74,9.96,2.83.16,0,.31,0,.47,0,4.5,0,8.05-1.42,10.55-2.93,2.7-1.63,3.46-4.71,1.87-7.15-4.14-6.34-8.27-12.67-12.41-19.01Z"/>
        <path class="cls-3" d="M160.8,292.36v-4.37c0-2.71,2.2-4.91,4.91-4.91h0c2.71,0,4.91,2.2,4.91,4.91v4.37"/>
      </g>
    </g>
    <g>
      <circle class="cls-17" cx="321.43" cy="483.71" r="24"/>
      <g>
        <path class="cls-8" d="M321.43,469.17l-12.42,19.02c-1.62,2.48-.78,5.59,1.98,7.23,2.39,1.42,5.73,2.74,9.96,2.83.16,0,.31,0,.47,0,4.5,0,8.05-1.42,10.55-2.93,2.7-1.63,3.46-4.71,1.87-7.15-4.14-6.34-8.27-12.67-12.41-19.01Z"/>
        <path class="cls-3" d="M316.52,497.49v-4.37c0-2.71,2.2-4.91,4.91-4.91h0c2.71,0,4.91,2.2,4.91,4.91v4.37"/>
      </g>
    </g>
    <g>
      <circle class="cls-17" cx="597.63" cy="520.63" r="24"/>
      <path class="cls-3" d="M586.02,531.59v-10.31c0-6.41,5.19-11.6,11.6-11.6h0c6.41,0,11.6,5.19,11.6,11.6v10.31"/>
    </g>
    <text class="cls-11" transform="translate(594.22 122.95)"><tspan x="0" y="0">D</tspan></text>
    <g>
      <circle class="cls-17" cx="570.5" cy="101.26" r="24"/>
      <g>
        <path class="cls-8" d="M570.5,86.71l-12.42,19.02c-1.62,2.48-.78,5.59,1.98,7.23,2.39,1.42,5.73,2.74,9.96,2.83.16,0,.31,0,.47,0,4.5,0,8.05-1.42,10.55-2.93,2.7-1.63,3.46-4.71,1.87-7.15-4.14-6.34-8.27-12.67-12.41-19.01Z"/>
        <path class="cls-3" d="M565.59,115.04v-4.37c0-2.71,2.2-4.91,4.91-4.91h0c2.71,0,4.91,2.2,4.91,4.91v4.37"/>
      </g>
    </g>
    <text class="cls-11" transform="translate(429.1 122.95)"><tspan x="0" y="0">E</tspan></text>
    <g>
      <circle class="cls-17" cx="404.81" cy="101.91" r="24"/>
      <g>
        <line class="cls-3" x1="395.31" y1="110.37" x2="395.31" y2="96.99"/>
        <line class="cls-3" x1="401.79" y1="110.37" x2="401.79" y2="96.99"/>
        <line class="cls-3" x1="408.27" y1="110.37" x2="408.27" y2="96.99"/>
        <line class="cls-3" x1="391.94" y1="113.19" x2="418.17" y2="113.19"/>
        <line class="cls-3" x1="414.76" y1="110.37" x2="414.76" y2="96.99"/>
        <path class="cls-8" d="M393.05,94.68h23.64c1.44,0,1.77-1.78.39-2.17l-12.09-3.43c-.26-.07-.54-.07-.8,0l-11.55,3.43c-1.36.4-1.03,2.16.41,2.16Z"/>
      </g>
    </g>
    <text class="cls-11" transform="translate(710.67 456.6)"><tspan x="0" y="0">G</tspan></text>
    <g>
      <circle class="cls-17" cx="686.38" cy="435.88" r="24"/>
      <line class="cls-3" x1="676.91" y1="444.89" x2="676.91" y2="431.51"/>
      <line class="cls-3" x1="673.52" y1="447.17" x2="699.75" y2="447.17"/>
      <line class="cls-3" x1="696.35" y1="444.89" x2="696.35" y2="431.51"/>
      <path class="cls-3" d="M700.34,429.24h-27.86l4.08-4.6c.99-1.12,2.42-1.76,3.91-1.76h11.87c1.49,0,2.92.64,3.91,1.76l4.08,4.6Z"/>
    </g>
  </g>
  <g id="stationen">
    <polygon points="652.79 316.99 658.63 325.01 657.26 324.71 652.37 317.83 652.79 316.99"/>
    <g>
      <circle class="cls-2" cx="518.12" cy="406.03" r="36"/>
      <path class="cls-18" d="M506,414.47c-2.06-4.2-5.48-6.18-6.75-6.84,1.45.13,3.87.54,6.5,1.97,2.97,1.61,4.76,3.74,5.64,4.96-.3-1.37-1.05-3.97-3.16-6.5-2.67-3.19-5.92-4.38-7.26-4.79,1.75-.09,5.39-.02,9.06,2.14,1.48.87,2.6,1.87,3.42,2.74.22-2.53.92-6.55,3.25-10.85,1.46-2.69,3.14-4.72,4.53-6.15-.51,2.68-.93,5.84-1.03,9.4-.12,4.35.25,8.16.77,11.28.48-1.93,1.5-4.94,3.76-8.03,1.71-2.33,3.55-3.93,4.96-4.96-.79,1.02-2.51,3.53-2.82,7.18-.23,2.68.41,4.82.85,5.98.83-.84,2.15-1.98,4.02-2.91,2.31-1.15,4.43-1.45,5.73-1.54-1.4.76-4.8,2.86-6.92,7.09"/>
    </g>
    <g>
      <circle class="cls-16" cx="547.2" cy="435.5" r="16"/>
      <text class="cls-10" transform="translate(544.19 441.83)"><tspan x="0" y="0">1</tspan></text>
    </g>
    <g>
      <circle class="cls-15" cx="351.89" cy="404.53" r="36"/>
      <g>
        <g>
          <polyline class="cls-17" points="366.76 397.76 361.66 394.92 356.55 397.76 351.45 394.92 346.35 397.76 341.24 394.92 336.13 397.76"/>
          <polyline class="cls-6" points="366.76 397.76 361.66 394.92 356.55 397.76 351.45 394.92 346.35 397.76 341.24 394.92 336.13 397.76"/>
        </g>
        <g>
          <polyline class="cls-17" points="366.76 403.59 361.66 400.75 356.55 403.59 351.45 400.75 346.35 403.59 341.24 400.75 336.13 403.59"/>
          <polyline class="cls-6" points="366.76 403.59 361.66 400.75 356.55 403.59 351.45 400.75 346.35 403.59 341.24 400.75 336.13 403.59"/>
        </g>
        <g>
          <polyline class="cls-17" points="366.76 409.42 361.66 406.59 356.55 409.42 351.45 406.59 346.35 409.42 341.24 406.59 336.13 409.42"/>
          <polyline class="cls-6" points="366.76 409.42 361.66 406.59 356.55 409.42 351.45 406.59 346.35 409.42 341.24 406.59 336.13 409.42"/>
        </g>
        <g>
          <polyline class="cls-17" points="366.76 415.25 361.66 412.42 356.55 415.25 351.45 412.42 346.35 415.25 341.24 412.42 336.13 415.25"/>
          <polyline class="cls-6" points="366.76 415.25 361.66 412.42 356.55 415.25 351.45 412.42 346.35 415.25 341.24 412.42 336.13 415.25"/>
        </g>
      </g>
    </g>
    <g>
      <circle class="cls-16" cx="380.54" cy="435.5" r="16"/>
      <text class="cls-10" transform="translate(376.08 441.33)"><tspan x="0" y="0">2</tspan></text>
    </g>
    <g>
      <circle class="cls-13" cx="142.52" cy="168.18" r="36"/>
      <g>
        <path class="cls-7" d="M144.25,158.01c.57-.6,1.54-1.76,2.07-3.5.78-2.57.12-4.76-.15-5.53.56.63,1.42,1.75,1.96,3.38.62,1.85.53,3.44.43,4.31.41-.69,1.12-2.09,1.22-3.98.13-2.39-.77-4.17-1.18-4.87.77.65,2.28,2.11,2.97,4.46.28.95.36,1.81.36,2.5,1.09-.98,2.96-2.4,5.64-3.29,1.67-.56,3.18-.75,4.33-.81-1.27.93-2.69,2.1-4.13,3.56-1.76,1.78-3.1,3.54-4.11,5.05.96-.62,2.58-1.49,4.74-1.9,1.63-.31,3.04-.26,4.04-.14-.73.12-2.45.5-4.01,1.91-1.15,1.04-1.72,2.19-1.99,2.86.68-.03,1.69.01,2.83.36,1.42.43,2.44,1.13,3.02,1.6-.89-.23-3.14-.68-5.7.26-1.64.61-2.76,1.55-3.38,2.17l-8.95-8.39Z"/>
        <circle class="cls-7" cx="130.34" cy="180.83" r="4.77"/>
        <circle class="cls-7" cx="132.45" cy="174.63" r="4.77"/>
        <circle class="cls-7" cx="136.65" cy="178.55" r="4.77"/>
        <circle class="cls-7" cx="134.38" cy="167.92" r="4.77"/>
        <circle class="cls-7" cx="138.57" cy="171.83" r="4.77"/>
        <circle class="cls-7" cx="142.77" cy="175.75" r="4.77"/>
        <circle class="cls-7" cx="137.43" cy="161.25" r="4.77"/>
        <circle class="cls-7" cx="141.63" cy="165.17" r="4.77"/>
        <circle class="cls-7" cx="145.82" cy="169.09" r="4.77"/>
        <circle class="cls-7" cx="150.01" cy="173" r="4.77"/>
        <circle class="cls-7" cx="143.91" cy="158.79" r="4.77"/>
        <circle class="cls-7" cx="148.11" cy="162.71" r="4.77"/>
        <circle class="cls-7" cx="152.3" cy="166.62" r="4.77"/>
      </g>
    </g>
    <g>
      <circle class="cls-16" cx="172.59" cy="197.5" r="16"/>
      <text class="cls-10" transform="translate(167.75 203.33)"><tspan x="0" y="0">3</tspan></text>
    </g>
    <g>
      <circle class="cls-12" cx="498.78" cy="168.18" r="36"/>
      <g>
        <g>
          <polygon class="cls-6" points="499.07 151.31 502.48 154.67 507.11 153.47 508.39 158.08 513 159.35 511.8 163.98 515.15 167.39 511.8 170.8 513 175.43 508.39 176.71 507.11 181.32 502.48 180.12 499.07 183.47 495.66 180.12 491.03 181.32 489.76 176.71 485.15 175.43 486.35 170.8 482.99 167.39 486.35 163.98 485.15 159.35 489.76 158.08 491.03 153.47 495.66 154.67 499.07 151.31"/>
          <circle class="cls-6" cx="499.07" cy="167.39" r="12.73"/>
        </g>
        <g>
          <path class="cls-9" d="M499.13,149.73v-5.86,5.86Z"/>
          <path class="cls-9" d="M499.13,191.3v-5.86,5.86Z"/>
          <path class="cls-9" d="M517.32,167.39h5.86-5.86Z"/>
          <path class="cls-9" d="M475.88,167.39h5.86-5.86Z"/>
          <path class="cls-9" d="M483.12,152l4.11,4.17-4.11-4.17Z"/>
          <path class="cls-9" d="M514.94,152l-4.11,4.17,4.11-4.17Z"/>
          <path class="cls-9" d="M487.23,178.41l-4.11,4.17,4.11-4.17Z"/>
          <path class="cls-9" d="M513.96,182.55l-4.17-4.11,4.17,4.11Z"/>
        </g>
      </g>
    </g>
    <g>
      <circle class="cls-16" cx="528.33" cy="197.5" r="16"/>
      <text class="cls-10" transform="translate(522.91 202.83)"><tspan x="0" y="0">4</tspan></text>
    </g>
    <g>
      <circle class="cls-14" cx="666.59" cy="313.66" r="36"/>
      <g>
        <polyline class="cls-9" points="680.55 310.79 683.48 309.17 685.97 306.78 686.58 303.68 685.73 302.41"/>
        <polyline class="cls-9" points="673.26 300.11 675.87 298 679.02 296.59 682.12 297.19 682.97 298.46"/>
        <line class="cls-9" x1="665.4" y1="313.25" x2="662.3" y2="328.35"/>
        <polyline class="cls-9" points="653.27 321.32 663.29 323.27 662.3 328.35 660.66 336.78 668.41 330.51 680.69 310.57 685.71 302.43 684.32 300.37 653.27 321.32"/>
        <polyline class="cls-9" points="653.26 321.43 655.21 311.41 641.7 308.78 650.42 303.94 673.52 300.06 682.97 298.46 684.32 300.37 653.26 321.43"/>
        <line class="cls-9" x1="649.95" y1="310.39" x2="665.4" y2="313.25"/>
        <polygon points="655.26 312.64 662.65 323.25 660.92 322.84 654.73 313.75 655.26 312.64"/>
        <polygon points="663.67 321.04 656.88 311.71 658.47 312.06 664.16 320.06 663.67 321.04"/>
        <polyline points="682.97 298.46 686.67 298.89 685.73 302.41"/>
      </g>
    </g>
    <g>
      <circle class="cls-16" cx="696.81" cy="343.5" r="16"/>
      <text class="cls-10" transform="translate(691.61 349.83)"><tspan x="0" y="0">5</tspan></text>
    </g>
  </g>
</svg>