<?xml version="1.0" encoding="UTF-8"?>
<svg id="Ebene_1" data-name="Ebene 1" xmlns="http://www.w3.org/2000/svg" viewBox="0 0 510.24 510.24">
  <defs>
    <style>
      .cls-1 {
        fill: #6d724c;
      }

      .cls-2 {
        fill: #b6c842;
      }
    </style>
  </defs>
  <path class="cls-1" d="M510.24,238.93v31.89c-1.54,5.74-1.34,12.3-2.13,18.3-14.56,109.89-101.67,199.57-210.86,217.63l-26.11,3.28c-10.54-.45-21.37.62-31.88,0C30.34,497.81-76.42,245.58,62.93,86.96,213.21-84.1,497.04,13.33,510.24,238.93ZM205.17,108.66c-68.69,3.01-93.92,30.59-96.48,98.84-1.12,30.01-1.12,64.76,0,94.77,2.62,69.84,29.32,96.56,99.13,99.17,29.99,1.12,64.74,1.12,94.73,0,69.72-2.61,96.52-29.38,99.13-99.17,1.12-30.01,1.12-64.76,0-94.77-2.62-69.89-29.37-96.56-99.13-99.17-30.93-1.16-66.47-1.02-97.38.33Z"/>
  <path class="cls-2" d="M205.17,108.66c30.92-1.36,66.46-1.49,97.38-.33,69.76,2.61,96.51,29.28,99.13,99.17,1.12,30.01,1.12,64.76,0,94.77-2.61,69.79-29.41,96.56-99.13,99.17-29.99,1.12-64.74,1.12-94.73,0-69.81-2.62-96.51-29.33-99.13-99.17-1.12-30.01-1.12-64.76,0-94.77,2.56-68.24,27.79-95.83,96.48-98.84ZM253.01,134.54c-54.73.1-113.4-9.61-117.42,61.99-1.23,21.96-.04,44.99.08,66.78.31,53.62-9.39,107.25,61.19,111.22,21.61,1.21,44.36.04,65.75-.08,53.57-.31,108.18,9.7,112.17-61.22,1.19-21.28.03-43.75-.08-64.79-.28-53.92,10.14-109.2-61.19-113.21-18.93-1.06-41.35-.73-60.5-.69Z"/>
  <path class="cls-1" d="M253.01,134.54c19.15-.03,41.57-.37,60.5.69,71.32,4.01,60.9,59.29,61.19,113.21.11,21.04,1.28,43.51.08,64.79-3.98,70.92-58.59,60.91-112.17,61.22-21.4.12-44.15,1.3-65.75.08-70.58-3.97-60.88-57.6-61.19-111.22-.13-21.79-1.31-44.82-.08-66.78,4.02-71.6,62.69-61.89,117.42-61.99ZM329.65,159.44c-4.17.7-9.43,4.76-11.54,8.38-9.14,15.61,9.6,33.57,24.71,23.73,16.15-10.52,6.58-35.42-13.17-32.1ZM244,180.4c-57.28,6.47-83.51,78.86-46.57,122.79,38.41,45.69,114.04,30.2,129.98-27.39,14.99-54.16-28.48-101.6-83.41-95.4Z"/>
  <path class="cls-2" d="M244,180.4c54.92-6.2,98.4,41.24,83.41,95.4-15.94,57.59-91.57,73.08-129.98,27.39-36.94-43.93-10.71-116.32,46.57-122.79ZM248.99,206.32c-61.92,7.46-53.02,102.73,10.66,97.38,63.97-5.37,55.34-105.34-10.66-97.38Z"/>
  <path class="cls-2" d="M329.65,159.44c19.75-3.32,29.31,21.58,13.17,32.1-15.11,9.85-33.85-8.12-24.71-23.73,2.11-3.61,7.37-7.67,11.54-8.38Z"/>
  <path class="cls-1" d="M248.99,206.32c66-7.95,74.63,92.01,10.66,97.38-63.68,5.35-72.58-89.92-10.66-97.38Z"/>
</svg>