<?xml version="1.0" encoding="UTF-8"?>
<svg id="Ebene_1" data-name="Ebene 1" xmlns="http://www.w3.org/2000/svg" viewBox="0 0 510.24 510.24">
  <defs>
    <style>
      .cls-1 {
        fill: #6d724c;
      }

      .cls-2 {
        fill: #b6c842;
      }
    </style>
  </defs>
  <path class="cls-1" d="M271.1.08l26.1,3.28c155.59,26.77,251.77,187.43,198.01,338.06-31.48,88.18-112.66,154.59-205.83,166.76-5.99.78-12.54.61-18.28,2.14h-31.87l-31.06-4.3C101.56,486.21,16.41,397.32,2.33,289.44c-.78-5.99-.61-12.55-2.13-18.29.45-10.54-.61-21.38,0-31.89C7.58,113.01,113.05,7.47,239.23.08h31.87ZM322.89,166.5v-49.33c-.87-1.42-1.99-1.38-3.44-1.55-14.15-1.66-47.54-.73-61.31,2.53-24.16,5.72-42.82,29.8-42.82,54.82v39.36h-28.88v51.82h28.88v147.49h61.75v-147.49h41.83l4.98-51.82h-46.81v-35.38c0-4.82,8.1-10.46,12.45-10.46h33.36Z"/>
  <path class="cls-2" d="M322.89,166.5h-33.36c-4.34,0-12.45,5.64-12.45,10.46v35.38h46.81l-4.98,51.82h-41.83v147.49h-61.75v-147.49h-28.88v-51.82h28.88v-39.36c0-25.02,18.66-49.1,42.82-54.82,13.77-3.26,47.17-4.19,61.31-2.53,1.45.17,2.56.12,3.44,1.55v49.33Z"/>
</svg>