<?xml version="1.0" encoding="UTF-8"?>
<svg id="Ebene_1" data-name="Ebene 1" xmlns="http://www.w3.org/2000/svg" viewBox="0 0 510.24 510.24">
  <defs>
    <style>
      .cls-1 {
        fill: #6d724c;
      }

      .cls-2 {
        fill: #b6c842;
      }
    </style>
  </defs>
  <circle class="cls-1" cx="255.12" cy="255.12" r="255.12"/>
  <path class="cls-2" d="M353.08,201.23c21.38-6.45,42.52,9.21,38.97,32.16-1.56,10.07-8.81,17.54-16.7,23.26-3.94,2.85-13.41,7.64-16.13,10.65-3.03,3.35,1.37,9.66,3.33,12.92,7.18,11.91,18.35,22.29,30.09,29.63,10.19,6.37,26.82,11.09,28.06,25.07,1.47,16.45-14.2,25.15-27.43,30.07-3.15,1.17-10.22,2.6-12.51,4.18-2.01,1.39-3.05,5.8-4.24,8.05-9.71,18.31-32.67,12.07-49.8,16.07-12.65,2.96-22.04,11.55-33.65,16.85-23.23,10.6-51.27,10.82-74.68.58-12.13-5.31-21.75-14.36-34.83-17.42-16.78-3.92-40.44,2.09-49.87-16-2.15-4.11-1.49-7.3-6.55-9.25-13.2-5.09-35.11-10.19-37.45-27.54-2.59-19.14,16.71-23.4,29.27-31.53s24.32-19.55,30.86-32.37c1.7-3.34,3.97-6.58.82-9.75s-10.96-6.85-14.91-9.68c-8.33-5.98-16.63-14.11-17.6-24.99-2.03-22.74,17.22-36.76,38.61-31.11l.91-.5c-.53-1.42-.52-2.92-.45-4.4,1.12-24.16,2.16-43.76,16.61-64.17,39.64-56.01,133.68-52.92,167.5,7.49,10.6,18.92,11.65,40.48,11.79,61.76ZM247.58,110.93c-42.23,2.95-72.65,35.12-71.52,77.78-1.08,11.11,1.65,23.33,1.18,34.19-.06,1.49-.78,2.98-2.36,3.28-2.84.55-15.15-5.1-19.1-6.19-5.97-1.64-14.34-3.31-17.92,3.39-3.92,7.34,1.35,13.09,6.9,17.27,5.67,4.27,25.05,14.85,27.55,19.88,2.11,4.26-.09,10.72-1.61,14.99-7.4,20.85-25.38,39.03-43.85,50.56-4.66,2.91-12.34,5.91-16.19,8.84-5.48,4.17,3.9,8.65,7.28,10.23,7.56,3.53,21.2,5.43,26.92,9.53,6.48,4.64,2.14,13.9,8.51,16.52,5.29,2.18,18.1,1.39,24.63,2.16,19.41,2.28,26.04,8.85,41.99,17.3,23.34,12.37,48.31,11.93,71.45-.59,17.74-9.6,23.92-15.36,45.6-17.19,5.34-.45,17.59.39,21.51-2.64,3.37-2.6,2.05-8.49,3.95-12.29,2.94-5.88,15.7-7.54,21.65-9.53,4.05-1.35,14.71-5.52,16.81-9.1,2.53-4.33-7.99-7.75-10.86-9.39-20.64-11.77-39.02-27.93-48.66-50.14-2.66-6.13-7.01-16.25-1.57-21.73,7.59-7.64,28.76-15.83,32.9-25.06,3.4-7.57-1.82-14.57-9.83-14.69-8.94-.13-18.56,7.26-26.03,7.85-4.61.37-3.72-4.26-3.63-7.61.75-25.41,4.07-51.93-10.86-74.28-16.65-24.91-45.49-35.4-74.85-33.35Z"/>
</svg>